# xmcd
#
# Track frame offsets:
#	150
#	21419
#	40369
#	58772
#	85345
#	112199
#	126458
#	152537
#	170607
#	181457
#	202754
#
# Disc length: 2986 seconds
#
# Revision: 0
# Processed by: cddbd v1.5.1PL0 Copyright (c) Steve Scherf et al.
# Submitted via: dBpowerAMP V4.0
#
DISCID=9a0ba80b
DTITLE=Kirk Mortensen - Every Little Piece of My Heart
DYEAR=1900
DGENRE=Christian
TTITLE0=I Only Want to See My Jesus
TTITLE1=Glory to Your Name
TTITLE2=What More Do You Need
TTITLE3=Sometimes
TTITLE4=Anna's Song
TTITLE5=Beautiful Jesus
TTITLE6=Soon
TTITLE7=Falling Man
TTITLE8=Tired
TTITLE9=Waiting
TTITLE10=Daddy Daddy
EXTD=
EXTT0=
EXTT1=
EXTT2=
EXTT3=
EXTT4=
EXTT5=
EXTT6=
EXTT7=
EXTT8=
EXTT9=
EXTT10=
PLAYORDER=
